<svg xmlns="http://www.w3.org/2000/svg" version="1.1" viewBox="15.468750000000002 2.968853633217993 138.6 124.60207612456747" style="max-height: 500px" width="138.6" height="124.60207612456747">
<path transform="translate(123,6)" fill="#2E2482" d="M0 0 C4.27441166 0.49320135 7.16613449 2.94975559 10 6 C16.35860959 14.63384667 18.84074553 22.57984322 17.53125 33.234375 C15.94983338 41.46704388 12.46807493 48.51356638 6 54 C3.27734375 55.21875 3.27734375 55.21875 1 56 C0.78085938 55.31035156 0.56171875 54.62070312 0.3359375 53.91015625 C-3.72559019 41.87416567 -8.54803892 34.93680457 -20 29 C-28.01455864 25.58639169 -37.62286175 25.89132381 -45.8125 28.625 C-55.49971532 32.66603314 -61.9211776 38.71539002 -66.03515625 48.44921875 C-69.20054238 57.82759533 -68.92591959 66.88781024 -65 76 C-63.57194609 78.42578757 -62.05433833 80.71386418 -60.40234375 82.9921875 C-59.04871999 84.93024492 -58.00160111 86.86261198 -57 89 C-66.80467295 93.06712359 -75.55623152 93.306631 -85.43359375 89.24609375 C-93.99006331 85.09158265 -98.49156982 79.32426094 -103 71 C-104.00496852 67.98509443 -104.10335303 65.95818308 -104.0625 62.8125 C-104.05347656 61.91144531 -104.04445313 61.01039062 -104.03515625 60.08203125 C-104.02355469 59.39496094 -104.01195313 58.70789063 -104 58 C-102 61 -102 61 -100.7734375 63.3046875 C-97.51545075 69.29283074 -94.47007182 73.45045497 -88 76 C-85.2695713 76.61504537 -82.8114146 76.8493885 -80 77 C-80.33083781 74.07471774 -80.33083781 74.07471774 -82 71 C-84.91952112 69.23868013 -87.77869707 68.19648394 -91 67 C-91 63.7 -91 60.4 -91 57 C-85.375 54 -85.375 54 -82 54 C-79.88524319 46.87958346 -79.88524319 46.87958346 -80.98046875 39.8671875 C-82.48107863 38.04523668 -82.48107863 38.04523668 -85 36 C-83.75352502 32.54822312 -82.56647733 29.65752753 -80 27 C-77.4765625 26.78515625 -77.4765625 26.78515625 -74.625 27.0625 C-70.65663652 27.18339054 -69.32908258 27.19357799 -65.8125 25.125 C-63.26497685 20.73271871 -63.56662001 16.95979323 -64 12 C-57.6969697 8 -57.6969697 8 -54.8125 8 C-53 9 -53 9 -51.375 11.0625 C-47.64199462 14.1078465 -43.63912722 13.31871866 -39 13 C-38.814375 11.88625 -38.814375 11.88625 -38.625 10.75 C-38 8 -38 8 -36 4 C-32.7 4 -29.4 4 -26 4 C-25.690625 5.44375 -25.38125 6.8875 -25.0625 8.375 C-24.1164166 11.19539957 -23.6153405 12.60978408 -21.078125 14.21875 C-17.50663272 15.25325121 -15.09401037 15.46937739 -11.6328125 13.984375 C-9.16665378 12.50668309 -9.16665378 12.50668309 -6 10 C-3.36 11.65 -0.72 13.3 2 15 C1.79761719 15.66386719 1.59523438 16.32773437 1.38671875 17.01171875 C0.67643376 19.72984844 0.12440541 22.19015375 0 25 C2.16799208 28.17281852 2.16799208 28.17281852 5 30 C7.92911114 23.68483638 8.33373412 16.17859556 6.20703125 9.515625 C4.5219795 6.08096012 2.45199527 2.94239433 0 0 Z"/>
<path transform="translate(143,19)" fill="#E3000E" d="M0 0 C0.66 0 1.32 0 2 0 C6.71414068 7.62839507 7.73378598 13.80894614 7.5 22.6875 C7.50257813 23.77611328 7.50515625 24.86472656 7.5078125 25.98632812 C7.43237369 32.19117018 6.6781532 36.44583532 4 42 C3.64382324 44.81638294 3.64382324 44.81638294 3.8125 47.4375 C3.83957031 48.30246094 3.86664063 49.16742188 3.89453125 50.05859375 C3.94673828 51.01958984 3.94673828 51.01958984 4 52 C3.37351562 52.1959375 2.74703125 52.391875 2.1015625 52.59375 C-2.74305827 54.24332454 -2.74305827 54.24332454 -6.078125 57.87109375 C-7.09822167 61.72560189 -7.37365783 65.19602448 -6 69 C-5.46375 69.66 -4.9275 70.32 -4.375 71 C-3 73 -3 73 -3.125 75.5 C-4.09129068 78.2608305 -4.9655883 79.89404855 -7 82 C-9.48828125 82.21484375 -9.48828125 82.21484375 -12.3125 81.9375 C-17.28349048 81.78245737 -17.28349048 81.78245737 -21.6875 83.8125 C-25.0336606 88.42477543 -24.52179257 92.48252673 -24 98 C-29.31543624 101.02013423 -29.31543624 101.02013423 -32.125 100.9375 C-34 100 -34 100 -35.625 97.9375 C-39.35800538 94.8921535 -43.36087278 95.68128134 -48 96 C-48.99 98.97 -49.98 101.94 -51 105 C-54.63 105 -58.26 105 -62 105 C-62.33 103.55625 -62.66 102.1125 -63 100.625 C-64.14865401 97.19902864 -64.14865401 97.19902864 -66.69921875 94.78125 C-70.00855718 93.68897327 -72.07876463 93.59334262 -75.30078125 95.015625 C-77.29699823 96.24952111 -79.16169945 97.54304903 -81 99 C-82.010625 98.2575 -83.02125 97.515 -84.0625 96.75 C-88.04183534 94.22220157 -91.86477824 93.15277672 -96.4375 92.0625 C-106.14963212 89.71967685 -113.71841232 84.82757429 -120 77 C-121.55637701 74.37994521 -122.77201098 71.79981498 -124 69 C-120.89267096 70.38560809 -118.7586276 72.02630725 -116.3125 74.375 C-107.94014911 81.88664192 -98.85865602 83.45399645 -87.90625 83.3046875 C-83.22641749 82.93966056 -79.58912346 81.62893408 -75.296875 79.83203125 C-71.14997309 78.32983719 -68.20450945 79.54830895 -64.25 81.03125 C-54.70969641 83.87499434 -44.77411677 82.44963132 -36 78 C-28.11039548 73.60926357 -24.0691436 67.02506302 -20.6875 58.8125 C-19.87007923 55.91573477 -19.87007923 55.91573477 -19.9375 52.5 C-18.67315153 47.7797657 -16.4598466 47.01743937 -12.41796875 44.58203125 C-4.47619106 39.38587622 -0.53676651 31.533802 1.58984375 22.4921875 C2.85513081 14.80406234 1.79023971 7.51261307 0 0 Z"/>
<path transform="translate(109.56640625,43.81640625)" fill="#2E2482" d="M0 0 C0.47308594 0.39058594 0.94617188 0.78117187 1.43359375 1.18359375 C1.43359375 1.84359375 1.43359375 2.50359375 1.43359375 3.18359375 C-1.20640625 3.18359375 -3.84640625 3.18359375 -6.56640625 3.18359375 C-6.63335693 4.07062988 -6.63335693 4.07062988 -6.70166016 4.97558594 C-7.27412066 11.6047561 -8.4463798 17.95514579 -9.94140625 24.43359375 C-10.15023437 25.3875 -10.3590625 26.34140625 -10.57421875 27.32421875 C-13.30108482 39.29582589 -13.30108482 39.29582589 -17.81640625 43.05859375 C-22.32613714 44.90348366 -25.91844582 44.82844783 -30.44140625 43.05859375 C-33.32100672 40.51776981 -33.25245076 38.98032902 -33.56640625 35.18359375 C-33.18601894 32.58179372 -32.73528088 30.14411203 -32.1328125 27.59765625 C-31.97602524 26.8958725 -31.81923798 26.19408875 -31.65769958 25.47103882 C-31.1584877 23.24772327 -30.64397627 21.02828307 -30.12890625 18.80859375 C-29.78608981 17.29450132 -29.44428234 15.78018007 -29.10351562 14.265625 C-28.26946246 10.56886498 -27.42167775 6.87549987 -26.56640625 3.18359375 C-29.53640625 3.18359375 -32.50640625 3.18359375 -35.56640625 3.18359375 C-35.64890625 4.44171875 -35.73140625 5.69984375 -35.81640625 6.99609375 C-36.40618027 13.15791186 -37.77465164 19.12657712 -39.19433594 25.1418457 C-40.72131004 31.90746169 -41.4644017 38.42346704 -39.56640625 45.18359375 C-44.76721434 43.09220496 -46.29469913 39.05612457 -48.56640625 34.18359375 C-51.68083059 25.58185033 -50.77002896 18.55479917 -47.56640625 10.18359375 C-43.95576318 3.24004938 -37.53045782 -3.04738607 -30.12890625 -5.81640625 C-18.92703892 -8.81655854 -9.57377606 -5.99060841 0 0 Z"/>
<path transform="translate(279,26.5625)" fill="#00247A" d="M0 0 C4.80200296 3.9016274 6.71444209 6.67927015 7.34375 12.7578125 C7.60436752 22.98705001 7.60436752 22.98705001 5.25 27.4375 C4.8375 28.4275 4.425 29.4175 4 30.4375 C5.69244985 33.76857164 5.69244985 33.76857164 8 36.4375 C8 37.0975 8 37.7575 8 38.4375 C5.03 38.4375 2.06 38.4375 -1 38.4375 C-1.66 37.1175 -2.32 35.7975 -3 34.4375 C-3.85722656 34.48390625 -4.71445312 34.5303125 -5.59765625 34.578125 C-17.55512546 34.95558739 -17.55512546 34.95558739 -23 30.4375 C-27.58265764 25.03231407 -27.66400085 19.79002743 -27.44921875 12.828125 C-26.63666195 6.69508758 -24.24238932 3.18765752 -19.4375 -0.5625 C-13.18629099 -2.38103353 -5.98517304 -2.99904999 0 0 Z M-15.3125 9.3125 C-18.09652107 12.81830431 -18.35032888 14.97080682 -18 19.4375 C-16.23526445 23.14906874 -16.23526445 23.14906874 -13 25.4375 C-10.0842309 25.85452122 -10.0842309 25.85452122 -7 25.4375 C-4.69724444 23.5704009 -3.32176129 22.08102259 -2 19.4375 C-1.58685744 14.7896462 -2.21012684 12.19309848 -5 8.4375 C-8.82181054 6.52659473 -11.99317122 6.62115234 -15.3125 9.3125 Z"/>
<path transform="translate(383,68.5625)" fill="#00247A" d="M0 0 C4.79225211 3.89370484 6.65341983 6.687746 7.4140625 12.72265625 C7.67989127 19.26344316 7.57007822 24.63856918 3.46484375 29.94921875 C-0.5786831 34.05744203 -4.35778321 34.64541066 -9.9375 34.875 C-15.55248953 34.70801146 -18.62859934 33.98926304 -23 30.4375 C-27.58265764 25.03231407 -27.66400085 19.79002743 -27.44921875 12.828125 C-26.63666195 6.69508758 -24.24238932 3.18765752 -19.4375 -0.5625 C-13.18629099 -2.38103353 -5.98517304 -2.99904999 0 0 Z M-15.3125 9.3125 C-18.09652107 12.81830431 -18.35032888 14.97080682 -18 19.4375 C-16.23526445 23.14906874 -16.23526445 23.14906874 -13 25.4375 C-10.0842309 25.85452122 -10.0842309 25.85452122 -7 25.4375 C-4.69724444 23.5704009 -3.32176129 22.08102259 -2 19.4375 C-1.58685744 14.7896462 -2.21012684 12.19309848 -5 8.4375 C-8.82181054 6.52659473 -11.99317122 6.62115234 -15.3125 9.3125 Z"/>
<path transform="translate(395,68)" fill="#00247A" d="M0 0 C5 0 5 0 6.8527832 1.28515625 C7.41312256 1.87167969 7.97346191 2.45820312 8.55078125 3.0625 C9.16630859 3.69414063 9.78183594 4.32578125 10.41601562 4.9765625 C11.04185547 5.64429687 11.66769531 6.31203125 12.3125 7 C12.95767578 7.66773437 13.60285156 8.33546875 14.26757812 9.0234375 C15.85656062 10.67127119 17.42983659 12.33422447 19 14 C19.33 9.38 19.66 4.76 20 0 C22.97 0 25.94 0 29 0 C29 11.22 29 22.44 29 34 C24 34 24 34 22.1472168 32.62304688 C21.58687744 31.99462891 21.02653809 31.36621094 20.44921875 30.71875 C19.52592773 29.70361328 19.52592773 29.70361328 18.58398438 28.66796875 C17.95814453 27.95253906 17.33230469 27.23710938 16.6875 26.5 C16.04232422 25.78457031 15.39714844 25.06914063 14.73242188 24.33203125 C13.1426803 22.56565172 11.56969031 20.78422174 10 19 C9.67 23.95 9.34 28.9 9 34 C6.03 34 3.06 34 0 34 C0 22.78 0 11.56 0 0 Z"/>
<path transform="translate(199,68)" fill="#00247A" d="M0 0 C4.764375 -0.1546875 4.764375 -0.1546875 9.625 -0.3125 C11.1092749 -0.38078003 11.1092749 -0.38078003 12.62353516 -0.45043945 C17.02797962 -0.51943975 20.08156249 -0.45735553 23.5859375 2.39453125 C26.75385301 5.81362453 27.15380663 7.33313406 27.1875 11.875 C27.20167969 12.73867187 27.21585938 13.60234375 27.23046875 14.4921875 C26.88211967 18.28269784 25.66749834 20.33250166 23 23 C23.433125 23.62648438 23.86625 24.25296875 24.3125 24.8984375 C24.869375 25.71570313 25.42625 26.53296875 26 27.375 C26.556875 28.18710938 27.11375 28.99921875 27.6875 29.8359375 C29 32 29 32 29 34 C25.37 34 21.74 34 18 34 C16.828125 31.68880208 15.65625 29.37760417 14.484375 27.06640625 C13.01047374 24.54473322 13.01047374 24.54473322 9 24 C9 27.3 9 30.6 9 34 C6.03 34 3.06 34 0 34 C0 22.78 0 11.56 0 0 Z M9 8 C9 10.64 9 13.28 9 16 C12.41656024 16.16677282 12.41656024 16.16677282 16 16 C16.66 15.34 17.32 14.68 18 14 C17.71016731 10.69316534 17.71016731 10.69316534 16 8 C13.66702567 7.95907063 11.33294775 7.95758277 9 8 Z"/>
<path transform="translate(201,26)" fill="#00247A" d="M0 0 C5 0 5 0 6.8527832 1.28515625 C7.41312256 1.87167969 7.97346191 2.45820313 8.55078125 3.0625 C9.16630859 3.69414062 9.78183594 4.32578125 10.41601562 4.9765625 C11.04185547 5.64429688 11.66769531 6.31203125 12.3125 7 C12.95767578 7.66773438 13.60285156 8.33546875 14.26757812 9.0234375 C15.85656062 10.67127119 17.42983659 12.33422447 19 14 C19.33 9.38 19.66 4.76 20 0 C22.97 0 25.94 0 29 0 C29 11.22 29 22.44 29 34 C24 34 24 34 22.1472168 32.62304688 C21.58687744 31.99462891 21.02653809 31.36621094 20.44921875 30.71875 C19.52592773 29.70361328 19.52592773 29.70361328 18.58398438 28.66796875 C17.95814453 27.95253906 17.33230469 27.23710938 16.6875 26.5 C16.04232422 25.78457031 15.39714844 25.06914063 14.73242188 24.33203125 C13.1426803 22.56565172 11.56969031 20.78422174 10 19 C9.67 23.95 9.34 28.9 9 34 C6.03 34 3.06 34 0 34 C0 22.78 0 11.56 0 0 Z"/>
<path transform="translate(330.08984375,67.6484375)" fill="#00247A" d="M0 0 C1.59765625 0.9140625 1.59765625 0.9140625 3.91015625 3.3515625 C4.78515625 7.1015625 4.78515625 7.1015625 4.91015625 10.3515625 C1.94015625 10.3515625 -1.02984375 10.3515625 -4.08984375 10.3515625 C-4.41984375 9.6915625 -4.74984375 9.0315625 -5.08984375 8.3515625 C-7.06984375 8.3515625 -9.04984375 8.3515625 -11.08984375 8.3515625 C-11.41984375 9.3415625 -11.74984375 10.3315625 -12.08984375 11.3515625 C-11.36539062 11.44953125 -10.6409375 11.5475 -9.89453125 11.6484375 C-3.96643003 12.56531716 0.28509523 13.45677427 4.91015625 17.3515625 C6.76742241 21.06609482 6.49516714 25.30735675 5.91015625 29.3515625 C3.71992707 32.17580538 2.07998418 33.76664853 -1.08984375 35.3515625 C-3.19038091 35.50057741 -5.296722 35.57294703 -7.40234375 35.6015625 C-8.53285156 35.62734375 -9.66335938 35.653125 -10.828125 35.6796875 C-14.43062207 35.31728061 -16.22404002 34.52247223 -19.08984375 32.3515625 C-21.37998028 28.9163577 -21.26827348 27.3662315 -21.08984375 23.3515625 C-19.63241912 23.27059447 -18.17371568 23.21238476 -16.71484375 23.1640625 C-15.90273438 23.12925781 -15.090625 23.09445313 -14.25390625 23.05859375 C-13.53976562 23.15527344 -12.825625 23.25195312 -12.08984375 23.3515625 C-11.42984375 24.3415625 -10.76984375 25.3315625 -10.08984375 26.3515625 C-7.50604198 26.60187227 -7.50604198 26.60187227 -5.08984375 26.3515625 C-4.75984375 25.3615625 -4.42984375 24.3715625 -4.08984375 23.3515625 C-4.89808594 23.20460938 -5.70632813 23.05765625 -6.5390625 22.90625 C-16.37092805 20.84262563 -16.37092805 20.84262563 -19.33984375 17.7265625 C-21.55945953 13.44587492 -22.20400724 10.07805293 -21.08984375 5.3515625 C-15.71446562 -1.43838882 -8.24523894 -2.55833582 0 0 Z"/>
<path transform="translate(284.5,68.5625)" fill="#00247A" d="M0 0 C3.05247313 2.9761613 4.65110108 5.59747916 6.5 9.4375 C6.5 10.0975 6.5 10.7575 6.5 11.4375 C4.89667209 11.51871924 3.29215974 11.57679134 1.6875 11.625 C0.34751953 11.67720703 0.34751953 11.67720703 -1.01953125 11.73046875 C-3.99194978 11.3793957 -4.53693099 10.57653038 -6.5 8.4375 C-10 7.77083333 -10 7.77083333 -13.5 8.4375 C-15.91389574 11.08499856 -16.43296825 12.90124599 -16.875 16.4375 C-16.43296825 19.97375401 -15.91389574 21.79000144 -13.5 24.4375 C-10.04271642 25.18761367 -10.04271642 25.18761367 -6.5 24.4375 C-5.88125 23.7775 -5.2625 23.1175 -4.625 22.4375 C-2.04649563 20.01067236 -1.18979184 20.16606828 2.25 20.1875 C3.66767057 20.25152383 5.08506449 20.32865881 6.5 20.4375 C6.11104749 25.88283513 4.2851047 28.56436961 0.5 32.4375 C-4.37892 35.54226727 -9.93377062 35.01381995 -15.5 34.4375 C-19.69187901 33.19408296 -22.1107226 30.8966477 -24.9375 27.5625 C-27.71498798 21.97129594 -27.29949448 15.4719453 -26.5 9.4375 C-24.90901203 4.96919336 -22.64445767 2.33073525 -18.9375 -0.5625 C-12.53342439 -2.42550381 -6.1476211 -2.7444737 0 0 Z"/>
<path transform="translate(291,26)" fill="#00247A" d="M0 0 C2.97 0 5.94 0 9 0 C9.01458252 0.68102783 9.02916504 1.36205566 9.04418945 2.0637207 C9.11862696 5.14722215 9.21530083 8.22963567 9.3125 11.3125 C9.33505859 12.38435547 9.35761719 13.45621094 9.38085938 14.56054688 C9.41630859 15.58857422 9.45175781 16.61660156 9.48828125 17.67578125 C9.51446533 18.62364502 9.54064941 19.57150879 9.56762695 20.5480957 C10.06554832 23.37171188 10.69456091 24.33587872 13 26 C15.13803054 25.92393164 15.13803054 25.92393164 17 25 C18.25838557 22.48322887 18.20818973 20.58706712 18.31640625 17.7734375 C18.35830078 16.7421875 18.40019531 15.7109375 18.44335938 14.6484375 C18.48267578 13.56820312 18.52199219 12.48796875 18.5625 11.375 C18.60568359 10.28703125 18.64886719 9.1990625 18.69335938 8.078125 C18.7996453 5.3855483 18.90168057 2.69287747 19 0 C21.97 0 24.94 0 28 0 C28.08746928 4.04152915 28.14054982 8.08281305 28.1875 12.125 C28.21263672 13.26710938 28.23777344 14.40921875 28.26367188 15.5859375 C28.32752718 22.90801255 27.80626817 27.56005838 23.0625 33.375 C18.18369332 35.96375457 13.39502296 35.84685069 8 35 C4.5350411 33.38346086 2.56832762 31.15216397 0.86376953 27.6965332 C-0.10873826 24.66053871 -0.22796745 22.22682599 -0.1953125 19.04296875 C-0.18886719 17.93115234 -0.18242187 16.81933594 -0.17578125 15.67382812 C-0.15902344 14.52333984 -0.14226562 13.37285156 -0.125 12.1875 C-0.11597656 11.01767578 -0.10695313 9.84785156 -0.09765625 8.64257812 C-0.07413732 5.76150947 -0.04126852 2.88086011 0 0 Z"/>
<path transform="translate(167,26)" fill="#00247A" d="M0 0 C2.97 0 5.94 0 9 0 C9.01458252 0.68102783 9.02916504 1.36205566 9.04418945 2.0637207 C9.11862696 5.14722215 9.21530083 8.22963567 9.3125 11.3125 C9.33505859 12.38435547 9.35761719 13.45621094 9.38085938 14.56054688 C9.41630859 15.58857422 9.45175781 16.61660156 9.48828125 17.67578125 C9.51446533 18.62364502 9.54064941 19.57150879 9.56762695 20.5480957 C10.06554832 23.37171188 10.69456091 24.33587872 13 26 C15.13803054 25.92393164 15.13803054 25.92393164 17 25 C18.25838557 22.48322887 18.20818973 20.58706712 18.31640625 17.7734375 C18.35830078 16.7421875 18.40019531 15.7109375 18.44335938 14.6484375 C18.48267578 13.56820312 18.52199219 12.48796875 18.5625 11.375 C18.60568359 10.28703125 18.64886719 9.1990625 18.69335938 8.078125 C18.7996453 5.3855483 18.90168057 2.69287747 19 0 C21.97 0 24.94 0 28 0 C28.08746928 4.04152915 28.14054982 8.08281305 28.1875 12.125 C28.21263672 13.26710938 28.23777344 14.40921875 28.26367188 15.5859375 C28.32752718 22.90801255 27.80626817 27.56005838 23.0625 33.375 C18.18369332 35.96375457 13.39502296 35.84685069 8 35 C4.5350411 33.38346086 2.56832762 31.15216397 0.86376953 27.6965332 C-0.10873826 24.66053871 -0.22796745 22.22682599 -0.1953125 19.04296875 C-0.18886719 17.93115234 -0.18242187 16.81933594 -0.17578125 15.67382812 C-0.15902344 14.52333984 -0.14226562 13.37285156 -0.125 12.1875 C-0.11597656 11.01767578 -0.10695312 9.84785156 -0.09765625 8.64257812 C-0.07413732 5.76150947 -0.04126852 2.88086011 0 0 Z"/>
<path transform="translate(167,68)" fill="#00247A" d="M0 0 C3.196875 -0.061875 6.39375 -0.12375 9.6875 -0.1875 C11.18543091 -0.22846802 11.18543091 -0.22846802 12.71362305 -0.27026367 C21.18367947 -0.34963045 21.18367947 -0.34963045 25 3 C28.06691499 7.41859485 27.75069355 12.85663428 27 18 C25.34505254 21.17454605 23.24648722 23.37675639 20 25 C18.12620395 25.07033769 16.24998898 25.0843022 14.375 25.0625 C13.37210938 25.05347656 12.36921875 25.04445313 11.3359375 25.03515625 C10.56507813 25.02355469 9.79421875 25.01195313 9 25 C9 27.97 9 30.94 9 34 C6.03 34 3.06 34 0 34 C0 22.78 0 11.56 0 0 Z M9 8 C9 10.97 9 13.94 9 17 C12.41656024 17.16677282 12.41656024 17.16677282 16 17 C18.2491908 15.17296773 18.2491908 15.17296773 18.25 12.5 C18.2491908 9.82703227 18.2491908 9.82703227 16 8 C12.41656024 7.83322718 12.41656024 7.83322718 9 8 Z"/>
<path transform="translate(232,68)" fill="#00247A" d="M0 0 C6.93 0 13.86 0 21 0 C21 2.64 21 5.28 21 8 C17.04 8 13.08 8 9 8 C9 9.65 9 11.3 9 13 C12.63 13 16.26 13 20 13 C20 15.64 20 18.28 20 21 C16.37 21 12.74 21 9 21 C9 22.65 9 24.3 9 26 C13.29 26 17.58 26 22 26 C22 28.64 22 31.28 22 34 C14.74 34 7.48 34 0 34 C0 22.78 0 11.56 0 0 Z"/>
<path transform="translate(325,26)" fill="#00247A" d="M0 0 C6.93 0 13.86 0 21 0 C21 2.64 21 5.28 21 8 C17.04 8 13.08 8 9 8 C9 9.65 9 11.3 9 13 C12.63 13 16.26 13 20 13 C20 15.64 20 18.28 20 21 C16.37 21 12.74 21 9 21 C9 22.65 9 24.3 9 26 C13.29 26 17.58 26 22 26 C22 28.64 22 31.28 22 34 C14.74 34 7.48 34 0 34 C0 22.78 0 11.56 0 0 Z"/>
<path transform="translate(111,48)" fill="#E3000E" d="M0 0 C3.5590842 1.1863614 3.91297148 1.87048022 5.6875 5.0625 C9.33044574 12.78023002 9.57183257 21.95088883 7.04296875 30.07421875 C3.20552531 38.22421768 -3.40698814 44.69792581 -11.76171875 48.13671875 C-15.43107458 49.11491855 -18.58355611 49.19653668 -22.375 49.125 C-23.62023437 49.10695312 -24.86546875 49.08890625 -26.1484375 49.0703125 C-27.08945313 49.04710937 -28.03046875 49.02390625 -29 49 C-29 48.01 -29 47.02 -29 46 C-28.01 46.061875 -27.02 46.12375 -26 46.1875 C-20.3432348 46.16459812 -15.88042452 44.28210762 -11.25 41.125 C-3.30674058 30.09269525 -2.46999069 13.04368541 0 0 Z"/>
<path transform="translate(341,68)" fill="#00247A" d="M0 0 C2.97 0 5.94 0 9 0 C9 11.22 9 22.44 9 34 C6.03 34 3.06 34 0 34 C0 22.78 0 11.56 0 0 Z"/>
<path transform="translate(295,68)" fill="#00247A" d="M0 0 C2.97 0 5.94 0 9 0 C9 11.22 9 22.44 9 34 C6.03 34 3.06 34 0 34 C0 22.78 0 11.56 0 0 Z"/>
<path transform="translate(237,26)" fill="#00247A" d="M0 0 C2.97 0 5.94 0 9 0 C9 11.22 9 22.44 9 34 C6.03 34 3.06 34 0 34 C0 22.78 0 11.56 0 0 Z"/>
</svg>