<?xml version="1.0" encoding="UTF-8"?>
<svg version="1.1" xmlns="http://www.w3.org/2000/svg" width="972" height="832">
<path d="M0 0 C23.45452482 11.72726241 45.08764591 32.39364906 61 53 C61.72574219 53.92039063 62.45148437 54.84078125 63.19921875 55.7890625 C99.84493351 103.24302472 115.40206511 163.94166593 108.10717773 223.28833008 C101.42236878 271.69950631 79.77573683 315.86987397 46 351 C45.48034668 351.54688477 44.96069336 352.09376953 44.42529297 352.65722656 C36.52742682 360.94183762 28.16756548 368.15921417 19 375 C17.9372505 375.80826581 16.87474181 376.61684835 15.8125 377.42578125 C7.92527187 383.33071401 7.92527187 383.33071401 4 384 C2.40730744 379.62550054 1.36272852 375.26046614 0.40332031 370.71850586 C-12.93272677 307.94540162 -51.17091312 251.46995895 -104.97265625 216.30102539 C-136.18248111 196.44644461 -169.58179477 184.19775363 -206 178 C-206.74894531 177.86722656 -207.49789062 177.73445312 -208.26953125 177.59765625 C-241.19558252 171.99456148 -278.24156337 175.417434 -310 185 C-311.28028076 185.38478516 -311.28028076 185.38478516 -312.58642578 185.77734375 C-338.31853254 193.65288512 -363.10639083 205.28351627 -385 221 C-386.0209375 221.72703125 -387.041875 222.4540625 -388.09375 223.203125 C-405.83227059 236.18025322 -422.7766629 251.38405694 -436 269 C-436.49064941 269.65194336 -436.98129883 270.30388672 -437.48681641 270.97558594 C-444.96463677 280.96546904 -451.88417917 291.1227367 -458 302 C-458.36544922 302.63663574 -458.73089844 303.27327148 -459.10742188 303.92919922 C-465.6080596 315.31094837 -470.51971612 327.14664053 -475.05126953 339.43359375 C-475.83654076 341.5578272 -476.64512096 343.67021515 -477.46484375 345.78125 C-480.5181656 354.13154874 -482.35538349 362.68698936 -484.1875 371.375 C-484.43781982 372.55723145 -484.68813965 373.73946289 -484.94604492 374.95751953 C-488.05075404 390.29312367 -489.33627341 405.23366492 -489.26074219 420.86572266 C-489.25000834 423.49795548 -489.26071913 426.12950619 -489.2734375 428.76171875 C-489.28721647 443.88847017 -487.78310281 458.47648396 -484.75 473.3125 C-484.53384033 474.37299561 -484.31768066 475.43349121 -484.0949707 476.52612305 C-475.39510166 517.87919039 -455.77080451 557.583693 -427.08203125 588.734375 C-425.1755956 590.80892036 -423.3323439 592.92265931 -421.5 595.0625 C-417.55545539 599.59688305 -413.28474026 603.78999359 -409 608 C-407.99889319 608.99889197 -406.99841898 609.99842147 -406 611 C-451.88413961 637.37701926 -512.03823655 639.78806157 -562.265625 626.59375 C-590.74613244 618.79035484 -617.70518633 606.26987256 -641 588 C-641.886875 587.32453125 -642.77375 586.6490625 -643.6875 585.953125 C-650.84558764 580.40101856 -657.4336191 574.2290215 -664 568 C-664.75539063 567.28714844 -665.51078125 566.57429687 -666.2890625 565.83984375 C-671.67644255 560.6134412 -676.34332327 554.87720802 -681 549 C-681.78246094 548.04609375 -682.56492187 547.0921875 -683.37109375 546.109375 C-707.55450726 515.92847493 -721.91191288 478.93917706 -728 441 C-728.19480957 439.79029541 -728.19480957 439.79029541 -728.39355469 438.55615234 C-730.06713318 427.69195581 -730.23090472 416.96797423 -730 406 C-728 407 -728 407 -727.25732422 409.03100586 C-727.0254541 409.91667236 -726.79358398 410.80233887 -726.5546875 411.71484375 C-726.28672363 412.70226562 -726.01875977 413.6896875 -725.74267578 414.70703125 C-725.31317627 416.30611328 -725.31317627 416.30611328 -724.875 417.9375 C-712.34928705 462.52032226 -683.00903829 499.8585926 -642.859375 522.87890625 C-618.40984128 536.49313438 -590.59818026 545.36380769 -562.4375 545.0625 C-561.61958984 545.05798828 -560.80167969 545.05347656 -559.95898438 545.04882812 C-557.97262353 545.03721198 -555.9863012 545.01928448 -554 545 C-554.43570313 543.79988281 -554.87140625 542.59976563 -555.3203125 541.36328125 C-558.52448754 532.4379471 -561.5636793 523.48955094 -564.1875 514.375 C-564.41260254 513.60325439 -564.63770508 512.83150879 -564.86962891 512.03637695 C-565.09183105 511.24835693 -565.3140332 510.46033691 -565.54296875 509.6484375 C-565.78781006 508.80893555 -566.03265137 507.96943359 -566.28491211 507.10449219 C-566.87375582 504.5480782 -567.21534218 502.18877844 -567.48266602 499.59082031 C-568.29775142 491.38130716 -568.29775142 491.38130716 -572.4894104 484.60272217 C-577.1169426 481.71273905 -582.34351197 480.41830086 -587.5625 479 C-589.18439276 478.49908287 -590.80387177 477.99028655 -592.42089844 477.47387695 C-595.68930705 476.43699113 -598.96542518 475.43567729 -602.25244141 474.45947266 C-609.2066418 472.36329784 -615.96664957 469.77375381 -622.75 467.1875 C-624.95247279 466.36673729 -627.15552816 465.5475348 -629.359375 464.73046875 C-630.90633771 464.1538811 -632.45325075 463.57716002 -634 463 C-634.8299938 457.85420725 -635.19857826 452.8441197 -635.31640625 447.63671875 C-635.33718735 446.8458638 -635.35796844 446.05500885 -635.37937927 445.2401886 C-635.42242792 443.56862199 -635.46349464 441.8970033 -635.50268555 440.2253418 C-635.56143321 437.73276232 -635.62683978 435.24042967 -635.69335938 432.74804688 C-635.97274258 421.83020547 -636.05175873 410.92109106 -636 400 C-629.26311502 397.0685295 -622.52553487 394.13866291 -615.78709602 391.21076584 C-612.65720868 389.85075075 -609.52755114 388.49021234 -606.3984375 387.12841797 C-602.7897667 385.55794838 -599.1800624 383.98986275 -595.5703125 382.421875 C-593.90876633 381.69819733 -593.90876633 381.69819733 -592.21365356 380.9598999 C-590.62313675 380.26963715 -590.62313675 380.26963715 -589.00048828 379.56542969 C-587.4871566 378.90315117 -587.4871566 378.90315117 -585.94325256 378.22749329 C-584.00780159 377.42030701 -582.04799194 376.66885061 -580.06736755 375.97990417 C-574.82940931 374.31231043 -574.82940931 374.31231043 -571.42504883 370.28051758 C-571.27060303 369.24564209 -571.11615723 368.2107666 -570.95703125 367.14453125 C-570.75480957 365.97736572 -570.55258789 364.8102002 -570.34423828 363.60766602 C-570.16876465 362.35526123 -569.99329102 361.10285645 -569.8125 359.8125 C-569.47063093 357.83920623 -569.12864605 355.86591251 -568.77600098 353.89451599 C-568.53657977 352.55448578 -568.30182346 351.21361401 -568.07165527 349.8719635 C-566.96413404 343.48937154 -565.39628831 337.28917609 -563.625 331.0625 C-563.19936768 329.55260498 -563.19936768 329.55260498 -562.76513672 328.01220703 C-560.38117748 319.81610481 -557.50675372 311.81570911 -554.31298828 303.90063477 C-553.98153809 303.05041748 -553.65008789 302.2002002 -553.30859375 301.32421875 C-553.00751709 300.58260498 -552.70644043 299.84099121 -552.39624023 299.0769043 C-551.8739417 296.33926189 -552.51998893 295.32058296 -554 293 C-554.82984881 291.80737393 -555.69257036 290.63713516 -556.58203125 289.48828125 C-557.09515869 288.82175537 -557.60828613 288.15522949 -558.13696289 287.46850586 C-558.68989014 286.75702393 -559.24281738 286.04554199 -559.8125 285.3125 C-560.99485376 283.77869369 -562.17714365 282.24483816 -563.359375 280.7109375 C-563.96458984 279.9281543 -564.56980469 279.14537109 -565.19335938 278.33886719 C-568.53198895 274.01669538 -571.85675033 269.68376007 -575.15966797 265.33422852 C-577.91682791 261.7047682 -580.70443052 258.10775859 -583.5546875 254.55078125 C-584.68231438 253.11720537 -585.80991934 251.68361224 -586.9375 250.25 C-587.47640869 249.59443115 -588.01531738 248.9388623 -588.57055664 248.26342773 C-590.02734375 246.390625 -590.02734375 246.390625 -592 243 C-590.9726912 239.48391967 -589.21427366 236.50288072 -587.3046875 233.39453125 C-586.48895264 232.06047241 -586.48895264 232.06047241 -585.65673828 230.69946289 C-585.06876465 229.74676514 -584.48079102 228.79406738 -583.875 227.8125 C-583.26769043 226.8217749 -582.66038086 225.8310498 -582.03466797 224.81030273 C-580.3804819 222.11380743 -578.72278012 219.41951602 -577.06323242 216.72631836 C-575.58881302 214.33237585 -574.11700372 211.93683268 -572.64511108 209.54133606 C-568.43575826 202.69071697 -564.21999846 195.84406723 -560 189 C-551.08497626 190.14329294 -542.24633803 191.62831067 -533.3984375 193.19921875 C-532.26666077 193.39943634 -531.13488403 193.59965393 -529.96881104 193.80593872 C-525.22813545 194.64565368 -520.48783541 195.48718963 -515.74951172 196.34008789 C-512.25875793 196.96721055 -508.76631331 197.58404128 -505.2734375 198.19921875 C-504.20056488 198.39496994 -503.12769226 198.59072113 -502.02230835 198.79240417 C-501.02671906 198.96621109 -500.03112976 199.14001801 -499.00537109 199.3190918 C-498.13270599 199.47516403 -497.26004089 199.63123627 -496.3609314 199.79203796 C-493.9248531 200.0066193 -492.29617319 199.80897574 -490 199 C-488.29357122 197.59877879 -488.29357122 197.59877879 -486.75 195.7890625 C-485.84677002 194.79555786 -485.84677002 194.79555786 -484.92529297 193.78198242 C-484.28994629 193.07017822 -483.65459961 192.35837402 -483 191.625 C-470.55863472 178.03053993 -456.37275995 164.30713653 -441 154 C-440.34 154 -439.68 154 -439 154 C-439.10244522 153.20930618 -439.20489044 152.41861237 -439.31044006 151.60395813 C-440.27534034 144.14543938 -441.2325007 136.68598719 -442.1810236 129.22536945 C-442.66891826 125.38999981 -443.15977699 121.55505866 -443.6574707 117.72094727 C-444.13782965 114.01951754 -444.61032246 110.31716026 -445.07742119 106.61403465 C-445.2568333 105.20272292 -445.43905759 103.79176569 -445.62416267 102.38118935 C-445.88330924 100.40263439 -446.13145798 98.42264845 -446.37915039 96.44262695 C-446.59566002 94.75385185 -446.59566002 94.75385185 -446.81654358 93.03096008 C-446.99672182 90.05416017 -446.92037571 87.83345208 -446 85 C-443.68613601 83.38265141 -441.60477979 82.16275458 -439.09765625 80.92578125 C-438.03956505 80.3768219 -438.03956505 80.3768219 -436.96009827 79.81677246 C-434.66894753 78.63221358 -432.36628286 77.47227026 -430.0625 76.3125 C-427.7175279 75.11026672 -425.37538522 73.90264234 -423.0333252 72.69474792 C-421.49136745 71.9001542 -419.94831962 71.10767219 -418.4041748 70.31733704 C-411.82285817 66.94159397 -405.37068079 63.36010615 -399.02758789 59.55395508 C-394.52924312 56.94977223 -394.52924312 56.94977223 -392.05038452 57.18502808 C-389.44958981 58.21877304 -388.03462715 59.59812184 -386.06103516 61.58251953 C-385.2998941 62.34065948 -384.53875305 63.09879944 -383.75454712 63.87991333 C-382.94093719 64.70587006 -382.12732727 65.53182678 -381.2890625 66.3828125 C-380.44330658 67.23044159 -379.59755066 68.07807068 -378.72616577 68.9513855 C-376.93567565 70.74860252 -375.14878924 72.54941585 -373.36523438 74.35351562 C-370.64956439 77.10015548 -367.92354674 79.83615805 -365.1953125 82.5703125 C-363.45510823 84.31969504 -361.71550546 86.06967618 -359.9765625 87.8203125 C-359.16700104 88.63412384 -358.35743958 89.44793518 -357.52334595 90.28640747 C-353.1510982 94.71339079 -348.98401799 99.21997602 -345 104 C-339.22687388 102.75400156 -333.50848074 101.37520899 -327.79174805 99.89331055 C-318.63974904 97.53312528 -309.48703909 95.38390121 -300.1875 93.6875 C-299.32423096 93.52846191 -298.46096191 93.36942383 -297.5715332 93.20556641 C-291.40476994 92.12309314 -285.24052794 91.48576287 -279 91 C-278.49919922 89.10507813 -278.49919922 89.10507813 -277.98828125 87.171875 C-275.41637213 78.6078847 -271.69354035 70.46220394 -268.1875 62.25 C-267.48064706 60.58353377 -266.77426372 58.91686827 -266.06835938 57.25 C-264.69755001 54.015134 -263.32066277 50.78296344 -261.93896484 47.55273438 C-260.68258399 44.61296029 -259.44333493 41.6670553 -258.22119141 38.71289062 C-257.8113073 37.73095734 -257.8113073 37.73095734 -257.3931427 36.72918701 C-256.66456403 34.98233166 -255.94203643 33.23295597 -255.2199707 31.48339844 C-254 29 -254 29 -252 28 C-249.33763808 27.97105311 -246.70633305 28.00384445 -244.046875 28.0859375 C-243.24244461 28.10685959 -242.43801422 28.12778168 -241.60920715 28.14933777 C-238.98929163 28.21915456 -236.36967858 28.29683133 -233.75 28.375 C-231.96607083 28.42462763 -230.18213525 28.47402536 -228.39819336 28.52319336 C-215.92444067 28.87552783 -203.46224374 29.35630032 -191 30 C-188.07350661 39.82085575 -185.22789767 49.62388979 -183.04626465 59.64086914 C-182.20929305 63.47343 -181.31063179 67.29056015 -180.40917969 71.10839844 C-179.96453884 73.05888963 -179.54711475 75.01575881 -179.15527344 76.97753906 C-177.37841013 87.84167612 -177.37841013 87.84167612 -171.14624023 96.32183838 C-166.68087965 98.33915212 -162.04876996 99.07281839 -157.21643066 99.68225098 C-154.0973252 100.12940808 -151.1844481 101.03458818 -148.1875 101.9921875 C-147.16358154 102.30164307 -146.13966309 102.61109863 -145.0847168 102.92993164 C-144.06676025 103.2418042 -143.04880371 103.55367676 -142 103.875 C-140.90276611 104.20943115 -139.80553223 104.5438623 -138.67504883 104.88842773 C-131.13125384 107.22930153 -123.76383707 109.85673787 -116.51757812 113.00537109 C-113.81803463 114.13894279 -111.46660474 114.98748852 -108.5234375 115.06640625 C-104.47963643 113.35749341 -101.32555965 110.63089279 -97.9375 107.875 C-96.33074358 106.59600064 -94.72261935 105.31871811 -93.11328125 104.04296875 C-92.27748535 103.3782959 -91.44168945 102.71362305 -90.58056641 102.02880859 C-85.48405051 98.02199241 -80.27833719 94.15984277 -75.07568359 90.29248047 C-71.4279903 87.57917166 -67.795081 84.86124012 -64.24609375 82.01953125 C-63.69808105 81.58680908 -63.15006836 81.15408691 -62.58544922 80.70825195 C-61.18520855 79.59735245 -59.79706408 78.47125092 -58.41015625 77.34375 C-56 76 -56 76 -53.70703125 75.95703125 C-49.66738176 77.513433 -46.23235555 79.81524715 -42.625 82.1875 C-40.93614674 83.27798141 -39.2459811 84.36643231 -37.5546875 85.453125 C-36.65975586 86.02869141 -35.76482422 86.60425781 -34.84277344 87.19726562 C-28.9022898 90.96440159 -22.86117591 94.56970172 -16.83056641 98.19018555 C-11.72520179 101.27301623 -6.79713084 104.45515884 -2 108 C-3.27406637 115.85056915 -5.10229756 123.41343577 -7.29296875 131.0546875 C-7.92937868 133.32021639 -8.56543627 135.58584429 -9.20117188 137.8515625 C-10.19763494 141.38149406 -11.19758552 144.9103514 -12.20385742 148.4375 C-13.18080057 151.86973359 -14.14402576 155.3055851 -15.10546875 158.7421875 C-15.41058884 159.79743622 -15.71570892 160.85268494 -16.03007507 161.93991089 C-16.30398575 162.92508698 -16.57789642 163.91026306 -16.86010742 164.92529297 C-17.10500412 165.78702118 -17.34990082 166.64874939 -17.60221863 167.53659058 C-18.05828997 170.36098235 -17.82374806 172.26807382 -17 175 C-14.80769127 177.71170276 -14.80769127 177.71170276 -11.96875 180.3515625 C-11.45880493 180.85110443 -10.94885986 181.35064636 -10.42346191 181.86532593 C-8.79155491 183.46172562 -7.1469909 185.04417853 -5.5 186.625 C2.20752559 194.06570878 9.34859766 201.57093624 16 210 C17.01550763 211.21520488 18.03666881 212.42573566 19.06640625 213.62890625 C20.30197266 215.08103516 20.30197266 215.08103516 21.5625 216.5625 C22.40941406 217.55378906 23.25632812 218.54507813 24.12890625 219.56640625 C26 222 26 222 26 224 C26.66 224 27.32 224 28 224 C28.25265625 223.32839844 28.5053125 222.65679687 28.765625 221.96484375 C30.24893875 218.40207432 31.99397542 214.99540789 33.75 211.5625 C43.67848104 191.79326124 50.0757179 171.95393872 53 150 C53.19722656 148.54980469 53.19722656 148.54980469 53.3984375 147.0703125 C57.40621392 111.43359782 48.95595653 75.29339825 32 44 C31.42378906 42.93136719 30.84757813 41.86273438 30.25390625 40.76171875 C26.10018268 33.36559664 21.24691696 26.65548527 16 20 C14.84757813 18.53820313 14.84757813 18.53820313 13.671875 17.046875 C9.76344248 12.18127534 5.79388901 7.58662269 1.21484375 3.33984375 C0 2 0 2 0 0 Z " fill="#392A98" transform="translate(775,8)"/>
<path d="M0 0 C3.46830812 3.15655008 5.837902 6.67205223 8.1875 10.6875 C8.57623291 11.34830566 8.96496582 12.00911133 9.36547852 12.68994141 C10.58830198 14.78698394 11.79603472 16.89208193 13 19 C13.37318359 19.64630371 13.74636719 20.29260742 14.13085938 20.95849609 C24.16150075 38.48548848 31.53402138 57.58416862 37 77 C37.34417969 78.1653125 37.68835938 79.330625 38.04296875 80.53125 C57.33833975 148.54558455 45.1451626 217.77932481 14 280 C13.58959473 280.82242187 13.17918945 281.64484375 12.75634766 282.4921875 C11.83918292 284.32893374 10.91987914 286.16461169 10 288 C10.66 288 11.32 288 12 288 C12.82532542 296.05780902 13.28591841 304.09337095 13.5625 312.1875 C13.6049585 313.39116211 13.64741699 314.59482422 13.69116211 315.83496094 C14.07315462 327.55759622 14.10581348 339.2726106 14 351 C-1.2320312 357.93492127 -16.47979752 364.83272056 -31.82659912 371.51065063 C-33.14976647 372.0865499 -34.47240007 372.66367707 -35.79449463 373.24203491 C-37.63865494 374.048036 -39.48528437 374.84838063 -41.33203125 375.6484375 C-42.90561401 376.33172119 -42.90561401 376.33172119 -44.51098633 377.02880859 C-47 378 -47 378 -49 378 C-49.12677124 378.84087158 -49.12677124 378.84087158 -49.25610352 379.69873047 C-52.66972911 401.84370438 -58.14144302 423.0558081 -66.1550293 443.99365234 C-66.52539307 444.97156738 -66.89575684 445.94948242 -67.27734375 446.95703125 C-67.60984131 447.81272705 -67.94233887 448.66842285 -68.28491211 449.55004883 C-69.25910441 452.88771347 -69.75618168 455.61645903 -68.04125977 458.75415039 C-67.59580811 459.28000732 -67.15035645 459.80586426 -66.69140625 460.34765625 C-66.19648682 460.94626465 -65.70156738 461.54487305 -65.19165039 462.16162109 C-64.65403076 462.78891113 -64.11641113 463.41620117 -63.5625 464.0625 C-62.44645646 465.40894725 -61.33188539 466.75661629 -60.21875 468.10546875 C-59.66703125 468.76853027 -59.1153125 469.4315918 -58.546875 470.11474609 C-56.4718664 472.64366283 -54.51049796 475.24738335 -52.5625 477.875 C-48.30322684 483.61372819 -43.96359483 489.28800593 -39.60375977 494.95068359 C-38.56029626 496.30999332 -37.52226884 497.67349664 -36.49023438 499.04150391 C-35.50155862 500.34084154 -34.49238243 501.62484691 -33.46289062 502.89208984 C-29.94453677 507.3822373 -29.94453677 507.3822373 -30.21899414 510.43920898 C-31.015224 513.04991703 -31.98637012 514.97590927 -33.44921875 517.2734375 C-33.9611377 518.08748047 -34.47305664 518.90152344 -35.00048828 519.74023438 C-35.55720215 520.60970703 -36.11391602 521.47917969 -36.6875 522.375 C-37.86683782 524.2467961 -39.04518645 526.11921574 -40.22265625 527.9921875 C-41.14715576 529.45736816 -41.14715576 529.45736816 -42.09033203 530.95214844 C-45.31849029 536.10432534 -48.47074789 541.30236458 -51.625 546.5 C-52.51191528 547.95865479 -52.51191528 547.95865479 -53.41674805 549.44677734 C-55.95593638 553.62442469 -58.48733494 557.80633317 -61 562 C-68.91293542 561.41264114 -76.64666815 560.31520194 -84.45703125 558.93359375 C-86.80924344 558.52668491 -89.16145703 558.11978411 -91.51367188 557.71289062 C-95.17854101 557.07336837 -98.84310723 556.43213893 -102.50756836 555.7902832 C-106.07335326 555.16726326 -109.6401372 554.55022659 -113.20703125 553.93359375 C-114.30086624 553.73986679 -115.39470123 553.54613983 -116.52168274 553.34654236 C-123.7181751 552.02023742 -123.7181751 552.02023742 -131 552 C-133.47568979 553.75119872 -133.47568979 553.75119872 -135.5625 556.1875 C-136.28566406 556.96480469 -137.00882813 557.74210938 -137.75390625 558.54296875 C-138.49511719 559.35378906 -139.23632812 560.16460938 -140 561 C-141.66123783 562.67207788 -143.32832836 564.33835338 -145 566 C-145.98297999 567.00402595 -146.96469184 568.00929459 -147.9453125 569.015625 C-163.22148658 584.60566025 -163.22148658 584.60566025 -172.41601562 590.0065918 C-176.07239474 592.22019905 -179.5112127 594.46001228 -182 598 C-183.13480382 603.94586731 -182.10596699 609.23719948 -181 615.125 C-180.75191571 616.72974675 -180.51075201 618.335578 -180.27636719 619.94238281 C-179.80030213 623.1437689 -179.2893178 626.33603435 -178.74414062 629.52636719 C-177.71824785 635.57694221 -176.98400875 641.65831304 -176.25 647.75 C-176.12367188 648.68730957 -175.99734375 649.62461914 -175.8671875 650.59033203 C-175.1770526 655.78072157 -174.8782179 660.76336975 -175 666 C-192.90283373 675.85060635 -210.94064603 685.44056834 -229 695 C-234.25739529 690.60514612 -239.16979934 685.98296044 -244 681.125 C-244.67289063 680.45597656 -245.34578125 679.78695312 -246.0390625 679.09765625 C-252.0486303 673.07648696 -257.63316597 666.96512873 -262.53125 660 C-266.61636671 654.61231405 -270.66464913 649.70557234 -277 647 C-285.60557224 646.71560984 -293.91190312 650.12431814 -301.91972351 652.98002625 C-309.0155077 655.47245855 -316.14408968 656.74286089 -323.5625 657.9375 C-325.30926025 658.23346069 -325.30926025 658.23346069 -327.09130859 658.53540039 C-335.79290544 660.00289827 -335.79290544 660.00289827 -339.0703125 659.95703125 C-342.57891383 661.20609332 -342.75916099 661.83222957 -344.31420898 665.08227539 C-345.06595493 666.91087381 -345.7914946 668.75037875 -346.49609375 670.59765625 C-346.8927272 671.57931259 -347.28936066 672.56096893 -347.69801331 673.57237244 C-348.96721735 676.7272163 -350.2029708 679.89394729 -351.4375 683.0625 C-352.26402152 685.13957043 -353.09277458 687.21575434 -353.92382812 689.29101562 C-355.14231337 692.33500869 -356.35898502 695.37957346 -357.56600952 698.4281311 C-360.84915396 706.70803037 -364.34829078 714.87671876 -368 723 C-379.74049248 723.04769327 -391.47136418 722.9667644 -403.20874023 722.68261719 C-404.88085181 722.64375002 -406.5530638 722.60901267 -408.2253418 722.578125 C-410.69608699 722.53235722 -413.16629539 722.47455727 -415.63671875 722.4140625 C-416.37532639 722.40251129 -417.11393402 722.39096008 -417.87492371 722.37905884 C-418.57708511 722.35918915 -419.27924652 722.33931946 -420.00268555 722.31884766 C-420.6079155 722.30552399 -421.21314545 722.29220032 -421.8367157 722.2784729 C-425.13855422 721.85343744 -427.89386051 721.23768463 -431 720 C-432.48716736 717.38122559 -432.48716736 717.38122559 -433.35522461 714.02148438 C-433.69504868 712.76678345 -434.03487274 711.51208252 -434.38499451 710.21936035 C-434.72482813 708.84433396 -435.06392711 707.46912582 -435.40234375 706.09375 C-435.77092089 704.6882497 -436.14209822 703.28342891 -436.51576233 701.87927246 C-437.49121493 698.18437493 -438.42969775 694.48102338 -439.36120605 690.77484131 C-440.31715581 687.00136075 -441.31016588 683.23766953 -442.29882812 679.47265625 C-443.73420881 673.97917108 -445.15658374 668.48267101 -446.55053711 662.97851562 C-446.83142685 661.86980103 -447.11231659 660.76108643 -447.40171814 659.61877441 C-448 657 -448 657 -448 655 C-449.1446875 654.87753906 -450.289375 654.75507812 -451.46875 654.62890625 C-455.91791511 654.06788214 -460.17132882 653.09343336 -464.5 651.9375 C-465.3031665 651.72416016 -466.10633301 651.51082031 -466.93383789 651.29101562 C-481.09836301 647.42661778 -495.53954104 643.14173239 -508.73046875 636.6171875 C-511.82266895 635.77627936 -513.12903763 636.64980415 -516 638 C-517.50908959 639.01367291 -518.97990482 640.08595181 -520.4140625 641.203125 C-521.66558105 642.16907593 -521.66558105 642.16907593 -522.94238281 643.15454102 C-523.82764648 643.84604248 -524.71291016 644.53754395 -525.625 645.25 C-527.50679478 646.70314181 -529.38963007 648.15493703 -531.2734375 649.60546875 C-532.22573242 650.33942871 -533.17802734 651.07338867 -534.15917969 651.82958984 C-539.22442366 655.69947803 -544.36930691 659.46012119 -549.51806641 663.21777344 C-550.23913574 663.74532227 -550.96020508 664.27287109 -551.703125 664.81640625 C-552.40630859 665.32703613 -553.10949219 665.83766602 -553.83398438 666.36376953 C-555.37868679 667.53065361 -556.88730906 668.74594675 -558.36914062 669.99169922 C-559.14966797 670.64283691 -559.93019531 671.29397461 -560.734375 671.96484375 C-561.43272461 672.56804443 -562.13107422 673.17124512 -562.85058594 673.79272461 C-565 675 -565 675 -567.51098633 674.82910156 C-569.94229161 674.01922292 -571.90375552 673.09870016 -574.08984375 671.76953125 C-574.86368408 671.30297119 -575.63752441 670.83641113 -576.43481445 670.35571289 C-577.26070068 669.84645264 -578.08658691 669.33719238 -578.9375 668.8125 C-579.80270264 668.2858374 -580.66790527 667.7591748 -581.55932617 667.21655273 C-607.87200446 651.12207042 -607.87200446 651.12207042 -619 643 C-618.67 640.69 -618.34 638.38 -618 636 C-619.91232422 635.96132812 -619.91232422 635.96132812 -621.86328125 635.921875 C-673.53122227 634.46293512 -724.5417733 618.72075869 -767 589 C-767.85335937 588.41089844 -768.70671875 587.82179688 -769.5859375 587.21484375 C-789.83918481 572.89160128 -809.01807853 555.84420836 -824 536 C-824.79019531 535.00355469 -825.58039063 534.00710938 -826.39453125 532.98046875 C-828.99227196 529.69924432 -831.51099791 526.36425557 -834 523 C-835.15242187 521.44539062 -835.15242187 521.44539062 -836.328125 519.859375 C-842.44914811 511.27541731 -847.32459694 502.01936596 -852.1875 492.6875 C-852.70683609 491.6979834 -852.70683609 491.6979834 -853.23666382 490.68847656 C-854.22350059 488.80105912 -855.19795244 486.90782592 -856.16796875 485.01171875 C-856.73797607 483.90272217 -857.3079834 482.79372559 -857.89526367 481.65112305 C-858.25982666 480.77625244 -858.62438965 479.90138184 -859 479 C-858.67 478.34 -858.34 477.68 -858 477 C-853.38510612 482.02947063 -848.87971327 487.09795025 -844.625 492.4375 C-837.58532311 501.12345386 -829.54390064 508.80678953 -821 516 C-819.7315625 517.10214844 -819.7315625 517.10214844 -818.4375 518.2265625 C-782.92677458 548.62297149 -739.94648616 568.4108542 -694.3125 577.75 C-693.35263184 577.94867676 -692.39276367 578.14735352 -691.40380859 578.35205078 C-675.10740098 581.53709645 -658.94695208 582.37764483 -642.375 582.3125 C-641.40922028 582.31067719 -640.44344055 582.30885437 -639.44839478 582.30697632 C-624.78387384 582.26045115 -610.44241723 581.7491641 -596 579 C-595.04480469 578.82307617 -594.08960938 578.64615234 -593.10546875 578.46386719 C-579.75407129 575.93095135 -566.83867318 572.43368814 -554 568 C-553.35111816 567.7829541 -552.70223633 567.5659082 -552.03369141 567.34228516 C-536.88517499 562.24840564 -521.78351873 555.34155682 -508.12109375 547.06640625 C-505.29207507 545.48305965 -504.19830216 545.00198302 -500.875 544.96875 C-497.41862035 546.20853835 -494.22491556 547.764143 -491 549.5 C-465.68439043 562.53398529 -439.16611745 570.16480782 -411 574 C-409.77780762 574.1750708 -408.55561523 574.3501416 -407.29638672 574.53051758 C-402.56752933 575.11281607 -397.86576594 575.19727922 -393.10546875 575.23828125 C-392.16841599 575.24802979 -391.23136322 575.25777832 -390.26591492 575.26782227 C-369.84697411 575.43647366 -350.04873503 575.34271186 -330 571 C-328.66291992 570.71914551 -328.66291992 570.71914551 -327.29882812 570.43261719 C-321.46398691 569.17671642 -315.72607707 567.68080606 -310 566 C-309.1740332 565.75942871 -308.34806641 565.51885742 -307.49707031 565.27099609 C-279.45626404 556.92743433 -252.56590527 543.54906876 -229.65283203 525.31494141 C-228.18500192 524.14718173 -226.70101277 522.99979805 -225.21484375 521.85546875 C-210.7128491 510.57103234 -197.26841067 497.49949617 -186 483 C-185.26007812 482.05382812 -184.52015625 481.10765625 -183.7578125 480.1328125 C-174.32070568 467.82212298 -166.26287992 454.69345596 -159 441 C-158.63406738 440.31437988 -158.26813477 439.62875977 -157.89111328 438.92236328 C-142.45930401 409.53720064 -135.31077208 377.27087873 -132.30957031 344.45410156 C-132 342 -132 342 -131 339 C-128.37873872 337.4140015 -125.7762051 335.97287565 -123.0625 334.5625 C-95.78121054 319.87572653 -69.94898399 299.78678853 -50 276 C-49.5570459 275.48147461 -49.1140918 274.96294922 -48.65771484 274.42871094 C-34.68360589 258.02252993 -22.88179938 240.14466152 -13 221 C-12.62568848 220.28263672 -12.25137695 219.56527344 -11.86572266 218.82617188 C2.54947526 190.88228886 11.3991472 160.1919744 15 129 C15.14139404 127.84153564 15.14139404 127.84153564 15.28564453 126.65966797 C16.28018564 117.42413508 16.24364652 108.15333858 16.25 98.875 C16.25067474 97.98738983 16.25134949 97.09977966 16.25204468 96.18527222 C16.23448543 81.5971446 15.47779814 67.40098229 13 53 C12.83371094 51.99050293 12.66742187 50.98100586 12.49609375 49.94091797 C9.90689651 34.56156583 5.77318097 19.96110222 0.6550293 5.23876953 C0 3 0 3 0 0 Z " fill="#DB2B1C" transform="translate(913,104)"/>
<path d="M0 0 C0.66644531 0.6496875 1.33289063 1.299375 2.01953125 1.96875 C2.01953125 2.29875 2.01953125 2.62875 2.01953125 2.96875 C-14.48046875 2.96875 -30.98046875 2.96875 -47.98046875 2.96875 C-48.64046875 6.92875 -49.30046875 10.88875 -49.98046875 14.96875 C-50.38636816 17.09759387 -50.80529801 19.22408138 -51.24790955 21.34559631 C-51.5942041 23.01413666 -51.5942041 23.01413666 -51.94749451 24.71638489 C-52.19419388 25.89287094 -52.44089325 27.06935699 -52.69506836 28.28149414 C-52.96054474 29.55707184 -53.22602112 30.83264954 -53.49954224 32.1468811 C-54.22312581 35.62309037 -54.94970948 39.09866606 -55.67695308 42.57411122 C-56.45143506 46.27747215 -57.22339702 49.9813585 -57.9957428 53.68516541 C-59.30122301 59.94370182 -60.60863297 66.20183271 -61.91723633 72.4597168 C-63.23688584 78.77051081 -64.55467679 85.08168871 -65.87036133 91.39331055 C-72.2413529 121.95534 -78.62660059 152.51405457 -85.19140625 183.03515625 C-85.41332579 184.0700374 -85.63524532 185.10491856 -85.86388969 186.17115974 C-101.31465233 258.14613862 -101.31465233 258.14613862 -125.55859375 275.8515625 C-144.88241763 287.94414411 -169.88218756 290.81831349 -191.98046875 285.96875 C-204.257936 282.64061686 -215.95191414 276.15970673 -222.73828125 265.10546875 C-230.47966658 250.38935702 -229.80656767 237.1415759 -226.48022461 221.13232422 C-226.20857598 219.78382372 -225.93784399 218.4351383 -225.66794491 217.08628654 C-224.93860663 213.45965245 -224.19381362 209.83637173 -223.44432211 206.21385479 C-222.98153098 203.97389133 -222.52204809 201.73327469 -222.06364822 199.49240875 C-219.91344897 188.98555867 -217.72898423 178.48599772 -215.53510785 167.98819208 C-214.59060706 163.46640129 -213.64861462 158.94408784 -212.70628357 154.42184448 C-211.12523538 146.83609901 -209.54257635 139.25069119 -207.95874023 131.66552734 C-205.94877336 122.03954916 -203.94136215 112.41303997 -201.93481541 102.78634834 C-200.1804614 94.36962141 -198.42506948 85.95311099 -196.66944385 77.53664923 C-196.1192403 74.89885879 -195.56914078 72.26104668 -195.01904488 69.6232338 C-194.14211298 65.41858532 -193.26452796 61.21407357 -192.38651276 57.00965118 C-192.07159128 55.50127032 -191.75683541 53.99285486 -191.44229698 52.48439407 C-187.9984218 35.96989911 -184.48104829 19.4714821 -180.98046875 2.96875 C-203.42046875 2.96875 -225.86046875 2.96875 -248.98046875 2.96875 C-249.31046875 5.93875 -249.64046875 8.90875 -249.98046875 11.96875 C-250.36652176 14.14865818 -250.78542685 16.32307909 -251.24154663 18.4894104 C-251.62364288 20.31979103 -251.62364288 20.31979103 -252.01345825 22.18714905 C-252.29454213 23.5123144 -252.57570316 24.8374634 -252.85693359 26.16259766 C-253.15487264 27.58197858 -253.45242848 29.00143999 -253.74963379 30.42097473 C-254.38937717 33.47257604 -255.03177324 36.52360228 -255.67625046 39.57420731 C-256.70875152 44.46181969 -257.73496057 49.35074095 -258.76040649 54.23983765 C-260.58376284 62.92931358 -262.41225372 71.61770292 -264.24194336 80.30584717 C-267.48062733 95.68450626 -270.71438748 111.06420128 -273.94140625 126.4453125 C-274.11539287 127.27459416 -274.28937948 128.10387583 -274.46863842 128.95828724 C-279.21317607 151.57822682 -283.90572426 174.20750691 -288.45703125 196.8671875 C-288.68778728 198.01023975 -288.91854332 199.15329201 -289.15629196 200.33098221 C-289.79559527 203.50283656 -290.42939623 206.6757327 -291.06103516 209.84912109 C-291.24364017 210.75343243 -291.42624519 211.65774376 -291.6143837 212.58945847 C-296.71487264 238.44684469 -296.67559116 268.59218292 -282.7265625 291.80859375 C-282.15035156 292.85144531 -281.57414062 293.89429688 -280.98046875 294.96875 C-281.31046875 295.62875 -281.64046875 296.28875 -281.98046875 296.96875 C-314.92925223 264.9366251 -337.72159696 224.75866594 -344.98046875 178.96875 C-345.09471191 178.2768457 -345.20895508 177.58494141 -345.32666016 176.87207031 C-353.72200748 123.81347524 -338.73314551 68.60904705 -307.453125 25.45703125 C-301.80033451 17.82498486 -295.53479565 10.82269001 -288.98046875 3.96875 C-288.10648437 3.04191406 -287.2325 2.11507812 -286.33203125 1.16015625 C-279.41324386 -5.99196268 -271.93965963 -12.08512216 -263.98046875 -18.03125 C-263.17351562 -18.64484375 -262.3665625 -19.2584375 -261.53515625 -19.890625 C-180.48470322 -79.19583453 -72.1473308 -65.38667183 0 0 Z " fill="#3A2B98" transform="translate(675.98046875,285.03125)"/>
<path d="M0 0 C2.96611278 1.40597725 4.6272284 2.43435142 6.48046875 5.16796875 C7.13607788 6.12425171 7.13607788 6.12425171 7.80493164 7.09985352 C8.2611792 7.78877686 8.71742676 8.4777002 9.1875 9.1875 C9.91151001 10.26825806 9.91151001 10.26825806 10.65014648 11.37084961 C12.11329345 13.57219553 13.55830359 15.78456296 15 18 C15.60666504 18.91604004 15.60666504 18.91604004 16.22558594 19.85058594 C44.99860488 63.58852833 51.98606906 119.73433043 41.96875 170.38671875 C31.67318912 218.7525374 2.51387125 264.34502774 -38 293 C-38.80147461 293.58394531 -38.80147461 293.58394531 -39.61914062 294.1796875 C-82.72710238 325.47514728 -136.55638014 337.17562493 -189 330 C-204.74841084 327.41719639 -204.74841084 327.41719639 -212 325 C-212 324.34 -212 323.68 -212 323 C-210.89825439 323.01571045 -209.79650879 323.0314209 -208.66137695 323.04760742 C-179.65906309 323.74996835 -179.65906309 323.74996835 -151 320 C-150.21012695 319.83371094 -149.42025391 319.66742187 -148.60644531 319.49609375 C-126.32250855 314.68468797 -107.37209413 304.65484215 -90 290 C-89.00806641 289.2265625 -89.00806641 289.2265625 -87.99609375 288.4375 C-41.3628743 250.75409034 -34.98415704 168.84710482 -23.85464799 114.38933581 C-21.56428002 103.18286988 -19.2621981 91.97880262 -16.96031952 80.77469635 C-16.43156923 78.20068702 -15.90306889 75.62662633 -15.37482452 73.05251312 C-10.37133324 48.6755917 -5.22669419 24.32996696 0 0 Z " fill="#DB2C1D" transform="translate(692,305)"/>
</svg>
